<svg width="42" height="42" viewBox="0 0 42 42" fill="#aaa" xmlns="http://www.w3.org/2000/svg">
    <path d="M18.7002 9.65272C15.8075 9.65272 15.2937 10.8133 15.2937 15.7662C15.2937 19.5849 18.1448 22.6608 21.6355 22.6608C24.9335 22.6608 27.9117 18.7634 27.9117 14.7122C27.9117 12.6576 26.9809 9.35349 25.9651 7.88415C24.5787 9.13466 21.6984 9.65272 18.7002 9.65272ZM31.2616 37.1904C31.5414 37.1904 31.7681 37.42 31.7681 37.7032C31.7681 37.9864 31.5414 38.216 31.2616 38.216H25.9471C25.6674 38.216 25.4406 37.9864 25.4406 37.7032C25.4406 37.42 25.6674 37.1904 25.9471 37.1904H31.2616ZM36.4617 40.6001C36.4088 40.8674 36.1432 41.0423 35.8685 40.9909C35.5938 40.9394 35.414 40.681 35.4669 40.4137C37.1056 32.1352 35.1768 29.1357 26.0823 26.7202L21.507 36.0258C21.3199 36.4063 20.76 36.3972 20.5861 36.0108L16.3696 26.6439L12.9331 27.8632C6.12646 30.3122 4.90449 32.7709 6.81676 40.3901C6.88312 40.6546 6.71661 40.9212 6.44486 40.9858C6.17311 41.0504 5.89901 40.8884 5.83265 40.624C3.99153 33.2882 5.03156 30.1654 10.6886 27.6867C9.11082 25.6832 8.77684 23.0332 8.77684 16.229C8.77684 10.6353 9.09397 8.10055 10.4822 5.78317C12.2439 2.8424 15.6421 1.29021 21.3612 1.02387C26.9967 0.761948 30.4717 2.66087 32.2548 6.46556C33.5732 9.27846 33.8808 12.2892 33.8808 18.3279C33.8808 19.3635 33.9671 20.2512 34.1724 21.699C34.7086 25.4812 34.6214 26.7256 33.1044 28.4428C36.9426 30.8966 37.6793 34.4489 36.4617 40.6001V40.6001ZM25.6898 25.3757C25.7881 25.482 25.9033 25.5856 26.0358 25.6871C28.5877 26.35 30.6347 27.0731 32.2369 27.9348C32.2554 27.8989 32.2788 27.8648 32.307 27.8331C33.5933 26.3904 33.6698 25.3669 33.1688 21.8337C32.9577 20.3447 32.8678 19.4193 32.8678 18.3279C32.8678 12.4351 32.5691 9.5116 31.3331 6.87451C29.7282 3.45007 26.6447 1.76508 21.4096 2.00839C16.0027 2.2602 12.9223 3.66719 11.3574 6.27951C10.0934 8.38946 9.78986 10.8158 9.78986 16.229C9.78986 22.7895 10.1134 25.3433 11.5007 27.0973C11.5516 27.1617 11.5837 27.2344 11.5977 27.3092C11.9138 27.1844 12.2425 27.0608 12.5839 26.938L16.3824 25.5903C16.4603 25.5224 16.5315 25.4529 16.5973 25.3804C17.3569 24.5524 17.6687 23.464 17.5756 22.411C17.5734 22.3866 17.5731 22.3625 17.5746 22.3387C15.5868 20.926 14.2807 18.506 14.2807 15.7662C14.2807 10.3252 15.0148 8.66707 18.7002 8.66707C21.7088 8.66707 24.7108 8.05857 25.5646 6.84064C25.7448 6.58367 26.1215 6.55135 26.3451 6.77369C27.701 8.12203 28.9247 12.1934 28.9247 14.7122C28.9247 17.9324 27.2387 21.0765 24.8558 22.6343C24.8206 23.7026 25.0975 24.7436 25.6898 25.3757V25.3757ZM24.9388 26.0372C24.2604 25.3133 23.9106 24.2739 23.8493 23.1773C23.147 23.4796 22.4022 23.6465 21.6355 23.6465C20.5525 23.6465 19.5257 23.3966 18.6017 22.948C18.5637 24.0551 18.1607 25.1563 17.3547 26.035C17.3211 26.072 17.2864 26.1085 17.2507 26.1445L21.0704 34.6298L25.1795 26.2724C25.0933 26.1959 25.013 26.1175 24.9388 26.0372V26.0372Z" />
</svg>
