<svg width="42" height="42" viewBox="0 0 42 42" fill="#aaa" xmlns="http://www.w3.org/2000/svg">
    <path d="M13.5192 34.951C13.5192 36.625 12.1967 37.9814 10.57 37.9814C8.94366 37.9814 7.62203 36.6253 7.62203 34.951C7.62203 33.277 8.94337 31.9218 10.57 31.9218C12.1969 31.9218 13.5192 33.2773 13.5192 34.951V34.951ZM6.61766 34.951C6.61766 37.1852 8.38631 39 10.57 39C12.7539 39 14.5236 37.185 14.5236 34.951C14.5236 32.7172 12.7541 30.9032 10.57 30.9032C8.38613 30.9032 6.61766 32.717 6.61766 34.951ZM34.3794 34.951C34.3794 36.625 33.0569 37.9814 31.4302 37.9814C29.8036 37.9814 28.481 36.625 28.481 34.951C28.481 33.2773 29.8033 31.9218 31.4302 31.9218C33.0572 31.9218 34.3794 33.2773 34.3794 34.951V34.951ZM27.4767 34.951C27.4767 37.185 29.2464 39 31.4302 39C33.6141 39 35.3838 37.185 35.3838 34.951C35.3838 32.7172 33.6143 30.9032 31.4302 30.9032C29.2462 30.9032 27.4767 32.7172 27.4767 34.951ZM27.2042 15.6418L32.8229 15.5627C33.5328 15.5531 34.9963 16.3994 35.4684 17.0728L38.6023 21.5355C39.4844 22.7904 39.9956 24.4172 39.9956 25.9672V30.999C39.9956 31.6658 39.4616 32.214 38.8178 32.214H38.2326C37.2532 29.2697 34.5383 27.2322 31.4305 27.2322C28.322 27.2322 25.6078 29.2692 24.6273 32.214H17.3732C16.3927 29.2692 13.6785 27.2322 10.57 27.2322C7.46141 27.2322 4.7473 29.2693 3.76789 32.214H3.18271C2.53866 32.214 2.00486 31.6668 2.00486 30.999V23.0302C2.02178 23.0398 2.03885 23.0491 2.05606 23.0583C2.38545 23.2631 2.77125 23.3813 3.18271 23.3813H25.0208C25.4338 23.3813 25.8213 23.2617 26.1519 23.0547C26.7765 22.7208 27.2037 22.1183 27.2037 21.4151V21.195C27.2041 21.1793 27.2042 21.1635 27.2042 21.1477V15.6418ZM2.00437 21.122V6.92034C2.00437 6.44872 2.51663 6.01858 3.18222 6.01858H25.0203C25.6848 6.01858 26.1994 6.45086 26.1994 6.92034V21.1825C26.1877 21.5971 25.9675 21.9636 25.6454 22.1743C25.4654 22.263 25.2518 22.3158 25.0203 22.3158H3.18222C2.95171 22.3158 2.73922 22.2638 2.56006 22.1763C2.22827 21.9606 2.00486 21.5791 2.00486 21.1477C2.00486 21.139 2.0047 21.1304 2.00437 21.122V21.122ZM27.2037 14.6232V6.92034C27.2037 5.84147 26.2021 5 25.0203 5H3.18222C1.9994 5 1 5.8392 1 6.92034V21.4151C1 21.4289 1.00016 21.4427 1.00049 21.4564V30.999C1.00049 32.2269 1.98154 33.2326 3.18271 33.2326H4.13839C4.36362 33.2326 4.5613 33.0805 4.622 32.8605C5.36921 30.1525 7.78703 28.2507 10.57 28.2507C13.3529 28.2507 15.7709 30.1524 16.5193 32.8607C16.5801 33.0806 16.7777 33.2326 17.0028 33.2326H24.9976C25.2228 33.2326 25.4204 33.0806 25.4812 32.8607C26.2296 30.1524 28.6476 28.2507 31.4305 28.2507C34.2127 28.2507 36.6314 30.1529 37.3785 32.8605C37.4392 33.0805 37.6369 33.2326 37.8621 33.2326H38.8178C40.0191 33.2326 41 32.2255 41 30.999V25.9672C41 24.2057 40.4237 22.372 39.4203 20.9445L36.2868 16.4823C35.6333 15.5501 33.869 14.5299 32.8092 14.5442L27.2037 14.6232Z" />
</svg>
