<svg width="42" height="42" viewBox="0 0 42 42" fill="#aaa" xmlns="http://www.w3.org/2000/svg">
    <path d="M5.36346 34.3007L5.37143 34.3865L5.3722 34.3867L5.36346 34.3007ZM34.4064 2.27897L35.244 3.92135L36.3485 2.758L34.4064 2.27897ZM2.46688 34.7257L3.3049 36.3678L4.40857 35.2053L2.46688 34.7257ZM31.104 28.4013C30.9885 28.5309 30.8718 28.6606 30.7406 28.8043L30.7472 28.7973C30.6295 28.9242 30.5083 29.0537 30.3856 29.1836C30.3422 29.2291 30.2985 29.2745 30.2533 29.3214L34.0886 33.2304L34.5739 32.7358C35.4564 31.8374 35.4564 30.3621 34.5737 29.4625L32.2287 27.0721C31.8679 27.5215 31.4931 27.9647 31.104 28.4013V28.4013ZM29.5365 30.0455C29.4325 30.1471 29.3381 30.2383 29.2535 30.3187L29.2378 30.3342C29.1196 30.4469 28.9952 30.5635 28.8557 30.6926C28.3493 31.1613 27.8338 31.6096 27.3101 32.038L29.6812 34.4544C30.5617 35.3527 32.0071 35.3527 32.8878 34.4542L33.3749 33.9577L29.5365 30.0455ZM40.8435 40.1151C41.3192 40.6 40.6029 41.3246 40.1272 40.8397L34.0885 34.6851L33.6042 35.1786C32.3285 36.4802 30.2403 36.4802 28.9648 35.1788L26.5072 32.6743C23.6961 34.8323 20.6691 36.4386 17.5633 37.5563C14.8904 38.5182 12.3182 39.033 10.9996 39.0677H10.8771L10.8664 39.0676L10.8398 39.0671C10.8253 39.0678 10.8107 39.0679 10.7959 39.0673L10.7332 39.0649L10.6911 39.063L10.6517 39.0615L10.625 39.0594C10.6138 39.0593 10.6025 39.0589 10.5912 39.058L10.5281 39.0532L10.4582 39.0478L10.3958 39.0419L10.3231 39.0349L10.2525 39.0267L10.1901 39.0185L10.1196 39.0089L10.0491 38.998L9.9879 38.9874L10.0116 38.9841L9.91463 38.9748L9.85629 38.9633L9.77708 38.9477L9.72287 38.9352L9.66278 38.9222L9.64359 38.918L9.61719 38.9113C9.60381 38.9088 9.5904 38.9058 9.57698 38.9021L9.51341 38.885L9.39324 38.8521L9.38083 38.8488L9.31585 38.8293L9.28907 38.8209C9.27422 38.8173 9.25937 38.813 9.24454 38.808L9.22148 38.8001C9.20907 38.797 9.19672 38.7933 9.18446 38.7891L9.10886 38.7631L9.08568 38.7543C9.07608 38.7515 9.06653 38.7484 9.05703 38.745L8.98984 38.7207L8.91962 38.6939L8.89756 38.6849C8.88245 38.6801 8.86747 38.6745 8.85266 38.6682L8.8061 38.6481L8.7281 38.6165L8.64442 38.5789C8.62865 38.5731 8.61294 38.5663 8.59735 38.5587L8.54354 38.5323L8.48692 38.5053L8.419 38.4726L8.35755 38.4413L8.28989 38.4059L8.22735 38.3713L8.17896 38.3435L8.14335 38.3238C8.13009 38.3173 8.11708 38.3102 8.10436 38.3025L8.04332 38.2653L8.023 38.2525C8.00885 38.2452 7.99494 38.237 7.98132 38.2282L7.95506 38.2111C7.94422 38.205 7.93348 38.1984 7.92284 38.1913L7.89004 38.1695C7.88277 38.1652 7.8756 38.1606 7.86853 38.1559L7.81319 38.1192L7.74853 38.0755L7.72298 38.0574C7.71019 38.0494 7.69755 38.0408 7.68511 38.0315L7.65356 38.0079C7.64474 38.002 7.63608 37.9958 7.62759 37.9894L7.59719 37.9661C7.58987 37.9611 7.58267 37.9559 7.5756 37.9505L7.54519 37.9273C7.53391 37.9196 7.52291 37.9114 7.51222 37.9027L7.4931 37.8872C7.4819 37.8795 7.47093 37.8713 7.46022 37.8627L7.40396 37.817L7.34872 37.7709L7.32349 37.7494C7.31496 37.7429 7.30652 37.7361 7.29819 37.7289L7.24299 37.6816L7.18387 37.6295L7.15545 37.6033C7.14653 37.596 7.13783 37.5883 7.12937 37.5803L7.07641 37.5301L7.02881 37.484L6.9759 37.4326L6.92853 37.3855C6.92015 37.3772 6.9121 37.3686 6.90436 37.3597L6.87787 37.3327C6.86942 37.3241 6.86129 37.3152 6.85351 37.3061L6.81869 37.2696L6.77143 37.2177L6.67193 37.1067L6.62918 37.056C6.62226 37.0479 6.61562 37.0395 6.60926 37.0309L6.53243 36.9383L6.49199 36.8865L6.44385 36.8246L6.3987 36.7635L6.31969 36.6525L6.28271 36.5994C6.27748 36.592 6.27246 36.5843 6.26765 36.5766L6.23852 36.5347L6.19378 36.4665L6.12561 36.3558C6.12269 36.3511 6.11985 36.3463 6.11709 36.3415L6.09566 36.308C6.08448 36.2905 6.07447 36.2726 6.06561 36.2543L6.02129 36.1784C6.01497 36.1676 6.00906 36.1566 6.00356 36.1454L5.94669 36.0421L5.91387 35.979L5.85609 35.8648C5.84807 35.8489 5.84093 35.8328 5.83466 35.8164L5.79355 35.73L5.76697 35.6722C5.76022 35.6576 5.75422 35.6429 5.74893 35.6281L5.7336 35.5924L5.68575 35.4751L5.6539 35.3967L5.64759 35.3795L3.54405 37.5952C3.304 37.848 2.89037 37.7869 2.73122 37.4751L1.05801 34.1965C0.858402 33.8054 1.2048 33.3575 1.62634 33.4616L5.37067 34.3863L5.35899 34.3228L5.34859 34.2603L5.33673 34.1886L5.32618 34.1168L5.31794 34.0532L5.30887 33.9814L5.30089 33.9086L5.29511 33.845L5.28862 33.7728L5.28335 33.7002L5.27991 33.6372L5.27641 33.5742L5.27226 33.4917L5.27136 33.4376L5.26905 33.374C5.2685 33.3588 5.2686 33.3438 5.26933 33.3289L5.26871 33.2926V33.229C5.26871 33.214 5.26934 33.1992 5.27059 33.1845L5.2711 33.156L5.27253 33.0826L5.27484 33.0202C5.27539 33.0053 5.27656 32.9906 5.27832 32.9761L5.27988 32.9475L5.284 32.8738L5.28933 32.8027L5.29511 32.7391L5.30194 32.6651L5.30985 32.5945L5.31809 32.5297L5.32748 32.4579L5.33819 32.3862L5.34859 32.3238L5.36061 32.2522L5.36346 32.2846L5.37249 32.1868L5.38549 32.1182L5.3982 32.0558C5.40128 32.0407 5.40498 32.0259 5.40929 32.0114L5.41534 31.9846L5.44334 31.8598C5.44686 31.8443 5.45107 31.829 5.45597 31.8139L5.46508 31.7795L5.48366 31.7094L5.50173 31.6456L5.51906 31.5856L5.52443 31.567L5.54107 31.5161L5.55981 31.4543C5.56412 31.4403 5.56897 31.4266 5.57435 31.4133L5.58622 31.3771L5.60889 31.3117L5.63194 31.2475L5.65822 31.176L5.68133 31.1171C5.68521 31.1072 5.68936 31.0975 5.69378 31.088L5.71029 31.0455L5.73456 30.9878L5.75998 30.9289L5.76697 30.9119L5.79191 30.8577L5.82373 30.7876L5.84198 30.7496C5.84663 30.7388 5.85167 30.728 5.85707 30.7174L5.88403 30.6647L5.9418 30.5493C5.94858 30.5358 5.95591 30.5226 5.96374 30.5099L5.97877 30.4816C5.98388 30.472 5.98927 30.4626 5.99491 30.4534L6.00997 30.4251C6.01651 30.4128 6.02351 30.4008 6.03093 30.3892L6.05249 30.3503L6.09298 30.2815L6.11472 30.2468C6.11758 30.2417 6.12053 30.2367 6.12357 30.2316L6.16384 30.1654L6.19993 30.109L6.24573 30.0388L6.27971 29.9902L6.32399 29.9256L6.34716 29.8934C6.35195 29.886 6.35694 29.8786 6.36213 29.8714L6.40788 29.8081L6.44814 29.755L6.49553 29.6931L6.53679 29.6415L6.58642 29.5799L6.61177 29.5499C6.61855 29.5409 6.62564 29.5321 6.63304 29.5236L6.65802 29.4947C6.6651 29.4855 6.67251 29.4766 6.68024 29.4678L6.72856 29.4135L6.77363 29.364L6.82727 29.3054L6.85414 29.2773C6.86173 29.2684 6.86965 29.2598 6.87787 29.2514L6.92409 29.2043C6.99331 29.1338 7.05407 29.0733 7.11302 29.0168C7.11974 29.0104 7.12661 29.0041 7.13362 28.9981C7.37783 28.764 7.62843 28.552 7.88543 28.3609C9.2085 27.3623 10.5095 26.8381 13.1688 26.0568C15.4322 25.3918 16.0551 25.1922 17.1336 24.736C18.174 24.296 19.1054 23.7864 19.96 23.1734C20.6271 22.6495 21.3004 22.0587 21.97 21.4076C22.6296 20.7027 23.2103 20.0158 23.708 19.3583C24.3225 18.4694 24.8226 17.52 25.2544 16.4596C25.7022 15.3602 25.8981 14.7253 26.5506 12.4185C27.3171 9.70863 27.8314 8.38312 28.8089 7.03794C29.0009 6.76976 29.2147 6.50843 29.4639 6.23915L29.4514 6.2525C29.5127 6.18486 29.5739 6.11998 29.6373 6.05544C29.6443 6.04828 29.6515 6.04136 29.6589 6.03468L29.6935 5.99957L29.7422 5.95225L29.7984 5.89801L29.8535 5.84712L29.8804 5.82297C29.8888 5.81452 29.8975 5.80633 29.9065 5.79843L29.9614 5.75036L29.9782 5.73865L30.0176 5.70225L30.0445 5.67993C30.0533 5.67174 30.0623 5.66383 30.0717 5.65623L30.1225 5.61501L30.1833 5.56594L30.2411 5.5215L30.2974 5.47948L30.3523 5.43937L30.4043 5.40168C30.4114 5.39655 30.4186 5.39161 30.4259 5.38687L30.4574 5.364C30.4665 5.35743 30.4758 5.35118 30.4852 5.34526L30.5168 5.32309C30.5275 5.31553 30.5386 5.30842 30.5498 5.30176L30.5924 5.27357L30.6508 5.2369L30.6796 5.21912C30.6878 5.21334 30.6962 5.20778 30.7048 5.20246L30.758 5.16948C30.7698 5.16216 30.7818 5.15535 30.7941 5.14906L30.8851 5.09693L30.9476 5.06116L31.0031 5.03054C31.0123 5.02544 31.0217 5.02064 31.0312 5.01614L31.0669 4.99716C31.0762 4.99225 31.0856 4.98764 31.0951 4.98333L31.1024 4.97959C31.1165 4.97127 31.1309 4.96359 31.1459 4.95659L31.1744 4.9432C31.1828 4.93858 31.1914 4.93417 31.2001 4.93001L31.2567 4.90292L31.2663 4.90075L31.2928 4.88685C31.3035 4.88108 31.3145 4.87566 31.3257 4.87063L31.3914 4.84128L31.4603 4.81191L31.5081 4.793L31.5852 4.76047L31.6441 4.7381L31.7197 4.70973L31.7472 4.70036C31.7575 4.69609 31.768 4.69215 31.7786 4.68853L31.8375 4.66851L31.9089 4.64483L31.9371 4.63596C31.9503 4.63084 31.9638 4.62624 31.9775 4.6222L32.0376 4.60454L32.1064 4.5844L32.1665 4.56791L32.2354 4.54908L32.2977 4.53322L32.3767 4.51382L32.4379 4.50086L32.4973 4.48831L32.57 4.47281L32.6398 4.45969L32.7011 4.44909L32.7715 4.43699L32.8421 4.42622L32.9045 4.41782L32.9751 4.40857L33.0466 4.40042L33.1081 4.39462L33.1795 4.38786L33.2513 4.38253L33.3131 4.37903L33.4031 4.37467L33.3755 4.37549L33.4561 4.37122L33.5185 4.37005L33.5807 4.36887L33.6609 4.36769L33.7233 4.36887L33.7859 4.37005L33.8657 4.37193L33.8999 4.37467L33.9298 4.37549L33.9905 4.379L34.0629 4.3832L34.1328 4.38865L34.196 4.39462L34.2096 4.39822L34.2689 4.40163L34.2709 4.40529L34.3385 4.40974L34.3556 4.41205L32.9981 1.75012C32.7986 1.35907 33.1449 0.911292 33.5663 1.01524L37.4431 1.97149C37.8224 2.06504 37.9587 2.54123 37.6878 2.82657L35.8138 4.80048L35.8788 4.82806C35.8954 4.83383 35.9119 4.84055 35.9283 4.84825L35.9819 4.87338L36.0503 4.90484L36.1787 4.9679L36.2606 5.01094C36.2725 5.01626 36.2844 5.02209 36.2961 5.02844L36.3636 5.06514L36.4815 5.13275L36.6073 5.2079L36.6628 5.2436L36.7432 5.29591C36.7549 5.3025 36.7664 5.30962 36.7778 5.31728L36.8467 5.364L36.8945 5.39862L36.9608 5.44597L37.0323 5.50024C37.0463 5.50915 37.0599 5.51884 37.0732 5.52929L37.1253 5.57032L37.1914 5.62317L37.2167 5.64473C37.2251 5.65108 37.2334 5.65776 37.2415 5.66475L37.3519 5.75933L37.3709 5.77646C37.385 5.78726 37.3987 5.7989 37.4119 5.81141C37.4332 5.83142 37.4332 5.83142 37.4569 5.85338C37.4817 5.87646 37.4818 5.87646 37.5134 5.90632L37.5409 5.93292C37.5497 5.94054 37.5582 5.94849 37.5666 5.95676L37.6286 6.01849C37.6537 6.03947 37.6766 6.06279 37.6971 6.08801L37.7217 6.11269L37.7679 6.16216C37.7739 6.16858 37.7797 6.17509 37.7853 6.18167L37.8214 6.21961L37.8668 6.27071L37.9108 6.32017C37.9195 6.32999 37.9277 6.33999 37.9355 6.35014L37.9662 6.3857L38.0078 6.43634C38.0137 6.44354 38.0195 6.45089 38.0249 6.45837L38.0531 6.49262L38.1067 6.56006L38.1417 6.60735L38.1821 6.66034C38.1904 6.67109 38.1981 6.682 38.2053 6.69304L38.2289 6.72493L38.2743 6.78834L38.3126 6.84444L38.3484 6.89744C38.3533 6.90468 38.358 6.91205 38.3625 6.91951L38.3952 6.9678L38.4298 7.02315C38.4351 7.03154 38.4401 7.04 38.4448 7.04851L38.4699 7.08806L38.505 7.14731L38.5358 7.19993L38.5693 7.25646C38.5779 7.27104 38.5857 7.2858 38.5928 7.30068L38.6384 7.38329C38.6428 7.39138 38.6471 7.39959 38.6511 7.40789L38.6702 7.44299C38.676 7.45366 38.6814 7.46451 38.6864 7.47553L38.705 7.51204C38.7095 7.52077 38.7137 7.5296 38.7176 7.53855L38.7431 7.5899L38.7963 7.70531L38.8229 7.76419L38.825 7.77386L38.8534 7.83443L38.8788 7.89332C38.8854 7.90854 38.8911 7.92396 38.8962 7.93953L38.9098 7.97266L38.9316 8.02949L38.9547 8.08838C38.9605 8.10314 38.9656 8.11796 38.97 8.1328L38.9799 8.15985L38.9803 8.16214L39.0048 8.22943L39.0256 8.28949C39.0308 8.30451 39.0353 8.31957 39.039 8.33462L39.0497 8.36787L39.069 8.43061L39.09 8.50052L39.1247 8.62299C39.1288 8.63759 39.1323 8.6522 39.1351 8.66677L39.1449 8.70416L39.1749 8.82899C39.1783 8.84274 39.181 8.85648 39.1832 8.87017L39.1893 8.89706L39.2031 8.95948C39.2066 8.97498 39.2094 8.99044 39.2115 9.00584L39.2188 9.04208L39.232 9.1137L39.2439 9.18541L39.2517 9.23853L39.265 9.32082L39.274 9.39263L39.2798 9.44561L39.2922 9.575L39.29 9.52814L39.2959 9.59144L39.3024 9.66369L39.3077 9.73623L39.3111 9.79982L39.3145 9.86288L39.3187 9.94473L39.3199 10.0083L39.321 10.0717L39.3222 10.1535L39.3209 10.2199C39.286 11.5528 38.7812 14.1714 37.838 16.8942C36.7091 20.1526 35.0724 23.3255 32.8599 26.2608L35.29 28.7379C36.5658 30.0382 36.5658 32.1618 35.29 33.4607L34.8022 33.9578L40.8435 40.1151ZM26.8488 25.8516L29.5394 28.5939C29.579 28.5527 29.6168 28.5131 29.6538 28.4739C29.7777 28.344 29.8961 28.2175 30.0209 28.0832L30.0111 28.0937C30.1266 27.9666 30.241 27.8395 30.3543 27.7124C30.7555 27.2623 31.141 26.8048 31.5111 26.3407L29.1646 23.9488C28.9676 23.748 28.9682 23.4229 29.166 23.2229C29.3638 23.0228 29.6839 23.0234 29.881 23.2243L32.1396 25.5266C34.2429 22.7113 35.8036 19.6728 36.8842 16.5535C37.7936 13.9282 38.2781 11.4147 38.3101 10.1966L38.3113 10.1535L38.3101 10.0909L38.309 10.0273L38.3085 9.9831L38.305 9.92015L38.3016 9.85656L38.2988 9.80309L38.2948 9.74934L38.2892 9.68663L38.2812 9.57618L38.2855 9.64197L38.2762 9.57012L38.2703 9.51592L38.2651 9.47221L38.2533 9.4005L38.2455 9.34738L38.2367 9.29417L38.2269 9.24087L38.2142 9.17845C38.2126 9.17085 38.2113 9.16325 38.2101 9.15567L38.2039 9.12829L38.19 9.06588C38.188 9.05687 38.1862 9.04788 38.1846 9.03891L38.1777 9.0103L38.1655 8.95902L38.1493 8.89778C38.1472 8.88961 38.1452 8.88144 38.1435 8.87328L38.1356 8.84534L38.1208 8.79277L38.1031 8.73422L38.0865 8.67999L38.0668 8.61876C38.0645 8.61149 38.0623 8.60421 38.0603 8.59693L38.0539 8.57835L38.032 8.51829L38.01 8.45705C38.0075 8.45026 38.0052 8.44345 38.003 8.43665L37.9911 8.40635L37.9725 8.35763L37.9482 8.29875C37.9442 8.28905 37.9406 8.27927 37.9372 8.26943L37.9289 8.25015L37.9035 8.19244L37.8804 8.14141L37.8538 8.08253L37.8345 8.03998L37.8056 7.98227C37.8028 7.97653 37.8 7.97074 37.7974 7.96491L37.7787 7.92839C37.777 7.92505 37.7753 7.92169 37.7737 7.91831L37.7546 7.88321C37.7513 7.87717 37.7482 7.87106 37.7452 7.86491L37.694 7.77216C37.6913 7.76733 37.6887 7.76249 37.6862 7.75763L37.6679 7.72668L37.6371 7.67406L37.6128 7.63249L37.5782 7.57832C37.5703 7.56599 37.563 7.55352 37.5563 7.54093L37.5161 7.48152C37.5108 7.47368 37.5056 7.46571 37.5007 7.45762L37.4803 7.42735L37.4506 7.3836L37.4168 7.33649L37.3775 7.2835C37.3726 7.27686 37.3678 7.27017 37.3633 7.26343L37.3382 7.23051L37.311 7.19313L37.273 7.14578L37.2314 7.09514C37.2251 7.08754 37.2191 7.07977 37.2133 7.07185L37.1986 7.05374L37.1547 7.0031C37.1493 6.99686 37.144 6.99056 37.139 6.9842L37.1163 6.95858L37.0838 6.92157L37.0376 6.87329C37.0278 6.86312 37.0186 6.85274 37.0099 6.84217L37.0013 6.83281L36.9539 6.7857C36.9469 6.77874 36.9402 6.77162 36.9336 6.76436L36.879 6.71003C36.8734 6.7051 36.868 6.70003 36.8626 6.69483L36.8196 6.65313C36.7984 6.63312 36.7984 6.63312 36.7747 6.61116C36.7652 6.60236 36.7594 6.59691 36.7542 6.59212C36.7462 6.58574 36.7384 6.57908 36.7306 6.57214L36.6908 6.536L36.6146 6.47084C36.6065 6.46471 36.5985 6.45829 36.5907 6.45157L36.5551 6.42081L36.5044 6.38059L36.4855 6.36571C36.4767 6.35989 36.4681 6.35375 36.4596 6.34731L36.3688 6.27808L36.3114 6.23733L36.274 6.20986L36.2467 6.19155C36.2398 6.18747 36.2329 6.1832 36.226 6.17873L36.1198 6.10962L36.0815 6.08467L35.9775 6.02275L35.8775 5.96523L35.8502 5.95048C35.8422 5.94677 35.8341 5.94282 35.8262 5.93863L35.727 5.88628L35.6231 5.8353L35.5623 5.80744L35.5347 5.7945C35.5304 5.7928 35.526 5.79104 35.5217 5.7892L35.4034 5.73904L35.3765 5.72756C35.37 5.72523 35.3634 5.72275 35.3568 5.72013L35.306 5.69973L35.2828 5.69094C35.2704 5.68731 35.2581 5.68317 35.2459 5.67853C35.2043 5.66274 35.1689 5.65036 35.0868 5.62248L35.0615 5.61426C35.052 5.61183 35.0425 5.60911 35.0331 5.60609L34.9854 5.5907L34.934 5.57551L34.8231 5.54507L34.7714 5.532L34.66 5.50595L34.5466 5.48186L34.4945 5.47175L34.4332 5.46115L34.3812 5.45206L34.3957 5.44843L34.3281 5.44398L34.2668 5.43574L34.272 5.43194L34.2127 5.42854L34.2108 5.42488L34.162 5.42259L34.1016 5.41679L34.0478 5.41164L33.9966 5.4076L33.9337 5.40403L33.9011 5.40133L33.8718 5.40053L33.828 5.3977L33.7669 5.39653L33.7045 5.39535L33.6611 5.39417L33.5997 5.39535L33.5373 5.39653L33.4941 5.39697L33.4042 5.40133L33.4317 5.4005L33.37 5.40406L33.3169 5.40698L33.2647 5.41082L33.2026 5.41679L33.1505 5.4216L33.0974 5.42765L33.0362 5.43574L32.9842 5.44264L32.9322 5.45056L32.871 5.46115L32.8172 5.47041L32.7674 5.47963L32.7054 5.49299L32.6441 5.50595L32.6006 5.51481L32.5416 5.52956L32.4903 5.54253L32.4303 5.55902L32.3789 5.57303L32.2907 5.59896C32.283 5.6018 32.2752 5.60446 32.2673 5.60693L32.2184 5.62211L32.1595 5.64213L32.1572 5.6425L32.1308 5.65149C32.1205 5.65576 32.11 5.65971 32.0994 5.66333L32.0571 5.67735L31.9982 5.69973L31.9586 5.71431L31.8896 5.74368L31.8419 5.76259L31.792 5.78388L31.7638 5.79653C31.7552 5.80105 31.7465 5.80534 31.7376 5.80939L31.681 5.8353L31.6601 5.84485C31.6495 5.8508 31.6386 5.8564 31.6275 5.86161L31.5989 5.87502C31.5941 5.87762 31.5894 5.88016 31.5845 5.88262L31.5291 5.91088C31.5246 5.91315 31.5201 5.91534 31.5157 5.91747L31.4799 5.93645C31.4752 5.93895 31.4704 5.94138 31.4656 5.94373L31.4376 5.95915L31.2712 6.05454C31.2691 6.05575 31.267 6.05694 31.2649 6.05812L31.2584 6.06211C31.2494 6.06856 31.24 6.07474 31.2305 6.08062L31.1791 6.11226L31.1355 6.13949L31.0823 6.17482C31.0787 6.17722 31.075 6.17957 31.0714 6.18188L31.0398 6.20405C31.0347 6.20762 31.0296 6.21109 31.0244 6.21446L30.9928 6.23733C30.9857 6.24247 30.9785 6.24742 30.9712 6.25216L30.9414 6.27377L30.8925 6.30947L30.8463 6.34394L30.8042 6.37612L30.7256 6.43983C30.7196 6.44539 30.7133 6.45082 30.707 6.4561L30.7025 6.45855L30.7025 6.45846L30.6956 6.4621L30.6615 6.49397L30.617 6.53186L30.5893 6.55616C30.5836 6.56179 30.5778 6.5673 30.5718 6.57267L30.5287 6.61128L30.4878 6.6489L30.4406 6.69461L30.4009 6.73296L30.3547 6.78006C30.3482 6.78671 30.3415 6.79317 30.3346 6.79942C30.2872 6.84821 30.2398 6.89872 30.1814 6.96259L30.1906 6.95282C29.9803 7.18033 29.7935 7.4087 29.6245 7.64461C28.7385 8.86402 28.2569 10.1052 27.5224 12.7019C26.8584 15.0494 26.6567 15.703 26.1888 16.8519C25.7298 17.9789 25.195 18.9942 24.5228 19.9658C23.9903 20.6701 23.3865 21.3843 22.6864 22.1318C21.9746 22.8246 21.2743 23.4392 20.5611 23.9986C19.625 24.6707 18.6285 25.2159 17.5224 25.6838C16.3949 26.1607 15.7535 26.3662 13.4499 27.043C10.9023 27.7915 9.68478 28.2821 8.48576 29.187C8.25348 29.3598 8.02912 29.5502 7.80964 29.762C7.80267 29.7687 7.79553 29.7752 7.78823 29.7815C7.74308 29.8252 7.69509 29.8731 7.64036 29.9289L7.61386 29.9559C7.60888 29.9616 7.60376 29.9672 7.59851 29.9727L7.56087 30.0118L7.51581 30.0612L7.47515 30.1058L7.44942 30.1348C7.44497 30.1404 7.44039 30.1459 7.43569 30.1514L7.4107 30.1803C7.4062 30.1861 7.40156 30.1918 7.39679 30.1975L7.36208 30.2383L7.32129 30.2892L7.28779 30.3309L7.24832 30.3826L7.21665 30.4241L7.19348 30.4563C7.18869 30.4637 7.1837 30.4711 7.17852 30.4783L7.14769 30.5209L7.10772 30.5794L7.08072 30.6175L7.04633 30.6706L7.01842 30.714L6.99737 30.7487C6.99217 30.7583 6.98665 30.7678 6.98083 30.7771L6.9543 30.819L6.92823 30.8633L6.89703 30.9198C6.8931 30.927 6.88901 30.934 6.88478 30.9408L6.86971 30.9692C6.8646 30.9788 6.85922 30.9882 6.85357 30.9974L6.83851 31.0257C6.83536 31.0317 6.8321 31.0375 6.82873 31.0433L6.81424 31.0722L6.78341 31.1338L6.76475 31.1703C6.76325 31.1736 6.76171 31.1769 6.76013 31.1802L6.73764 31.2266L6.70943 31.2891L6.69002 31.3312L6.66558 31.3898L6.6461 31.4339L6.62299 31.494C6.61836 31.506 6.61332 31.5178 6.60788 31.5293L6.6018 31.5447L6.58094 31.6017L6.56085 31.6576L6.54292 31.7092L6.52327 31.7692C6.52068 31.7771 6.51792 31.785 6.51499 31.7927L6.50637 31.8207L6.50363 31.8305L6.48939 31.874L6.47275 31.9318L6.45782 31.9842L6.42547 32.1067C6.42449 32.1104 6.42346 32.1141 6.4224 32.1178L6.40125 32.2112L6.38712 32.2748C6.38538 32.2825 6.38347 32.2901 6.3814 32.2977L6.37708 32.3188L6.37672 32.3137C6.3746 32.3206 6.37234 32.3274 6.36996 32.3341L6.36585 32.3794L6.35591 32.4326L6.34551 32.4951L6.33658 32.5482L6.32863 32.6012L6.3207 32.6624L6.31359 32.7178L6.30771 32.7698L6.30193 32.8334L6.29686 32.8883L6.29289 32.9406L6.28596 33.0678C6.28547 33.0768 6.28476 33.0856 6.28384 33.0944L6.28318 33.1113L6.28087 33.2385C6.28071 33.2473 6.28033 33.2561 6.27974 33.2648L6.27971 33.283L6.28087 33.3454C6.28103 33.3542 6.28097 33.3629 6.2807 33.3716L6.28202 33.4092L6.28249 33.4539L6.28593 33.5169L6.28943 33.5799L6.29224 33.6334L6.29615 33.6871L6.30193 33.7507L6.30666 33.8039L6.31261 33.8581L6.32054 33.9205L6.32733 33.9735L6.33511 34.0266L6.34551 34.0891L6.35429 34.1423L6.36126 34.1964L6.38931 34.3195C6.39069 34.3262 6.39194 34.3329 6.39306 34.3397L6.41326 34.4261L6.42828 34.4886C6.42971 34.4945 6.43103 34.5004 6.43224 34.5064L6.45542 34.5911L6.47275 34.6523L6.48489 34.6964L6.50637 34.7635C6.52043 34.8091 6.53673 34.858 6.55789 34.9193L6.57984 34.9794L6.59421 35.0199L6.61916 35.0805L6.66365 35.1898L6.68908 35.2487C6.69189 35.2552 6.69457 35.2618 6.6971 35.2683L6.7067 35.2892L6.76217 35.4058C6.76618 35.4142 6.76995 35.4227 6.77348 35.4313L6.81051 35.5046L6.83463 35.5512L6.89703 35.6643C6.89897 35.6678 6.90087 35.6713 6.90273 35.6749L6.95546 35.7651C6.95884 35.7709 6.96209 35.7767 6.96523 35.7826L6.97815 35.8028C6.98451 35.8127 6.9905 35.8228 6.99614 35.8331L7.04213 35.9082L7.07074 35.9518L7.10772 36.0047C7.11278 36.012 7.11765 36.0194 7.12232 36.0269L7.14195 36.055L7.21235 36.1541L7.24395 36.197L7.28439 36.2488L7.31464 36.288L7.39899 36.3893C7.40478 36.3962 7.41036 36.4033 7.41575 36.4105L7.42903 36.4264L7.51581 36.5229L7.55229 36.5631L7.59851 36.6114C7.60376 36.6169 7.60888 36.6225 7.61386 36.6282L7.64036 36.6552C7.64578 36.6607 7.65107 36.6664 7.65623 36.6721L7.67892 36.6947L7.72723 36.7416L7.77019 36.7833L7.79869 36.8103C7.80424 36.815 7.8097 36.8198 7.81506 36.8247L7.85416 36.861L7.89949 36.9008L7.92606 36.9236C7.93396 36.9296 7.94177 36.9359 7.94949 36.9425L7.99478 36.9812L8.04022 37.0191L8.05934 37.0346C8.07053 37.0423 8.0815 37.0505 8.09221 37.0592L8.12267 37.0838C8.12609 37.0863 8.12947 37.0888 8.13283 37.0914L8.16324 37.1147C8.17055 37.1197 8.17776 37.1249 8.18483 37.1303L8.21524 37.1535C8.22106 37.1575 8.2268 37.1616 8.23247 37.1658L8.25888 37.1856C8.26401 37.1889 8.26912 37.1924 8.2742 37.196L8.31701 37.2266L8.36913 37.2616L8.40193 37.2834C8.4092 37.2877 8.41637 37.2923 8.42344 37.297L8.44929 37.3141C8.45705 37.3186 8.46477 37.3234 8.47243 37.3284L8.49309 37.3418C8.50263 37.347 8.51206 37.3525 8.52136 37.3583L8.56894 37.3883L8.60309 37.4091L8.66897 37.4455L8.71736 37.4733L8.76178 37.498L8.81473 37.5256L8.86121 37.5494L8.91783 37.5765L8.97842 37.6055L9.0063 37.6191C9.01121 37.6212 9.01611 37.6233 9.021 37.6255L9.07878 37.6514L9.11748 37.6692L9.18763 37.6974L9.20985 37.7069C9.21948 37.7102 9.22904 37.7137 9.23854 37.7176L9.28503 37.7367L9.33571 37.756L9.35877 37.7643C9.37398 37.7685 9.38909 37.7734 9.40405 37.7791L9.44632 37.7955L9.46938 37.8033C9.48179 37.8065 9.49414 37.8102 9.5064 37.8143L9.53313 37.8234C9.54013 37.8253 9.54712 37.8273 9.55411 37.8295L9.60816 37.8465L9.65576 37.8608L9.71708 37.8774L9.77485 37.8933L9.80294 37.9008C9.81181 37.9026 9.82068 37.9046 9.82957 37.9069L9.87435 37.9183L9.93989 37.9325L9.98317 37.9428L10.0462 37.9549L10.0104 37.9574L10.0965 37.9647L10.1578 37.9753L10.2098 37.9844L10.2618 37.9925L10.2566 37.9963L10.3242 38.0007L10.376 38.0078L10.427 38.0138L10.4894 38.0196L10.5432 38.0248L10.6037 38.0295L10.6316 38.0316C10.6433 38.0317 10.655 38.0321 10.6668 38.0331L10.6899 38.0363L10.7102 38.0367L10.7711 38.039L10.7991 38.0401C10.8074 38.0398 10.8158 38.0398 10.8243 38.0399L10.8759 38.041H10.9395L10.9865 38.0412C12.1816 38.0096 14.6495 37.5157 17.2256 36.5886C20.1961 35.5196 23.0925 33.9894 25.7866 31.9399L23.5557 29.6663C23.3586 29.4655 23.3592 29.1404 23.557 28.9403C23.7548 28.7402 24.0749 28.7408 24.272 28.9417L26.5924 31.3065C27.1289 30.8706 27.6567 30.4132 28.1746 29.9339C28.3106 29.808 28.4315 29.6946 28.5337 29.5976L28.5492 29.5822C28.6364 29.4991 28.726 29.4126 28.8228 29.3181L26.1325 26.5762C25.6568 26.0913 26.3731 25.3667 26.8488 25.8516V25.8516ZM19.5744 16.9145C19.796 17.0868 19.8381 17.409 19.6683 17.6341C19.4986 17.8592 19.1812 17.9019 18.9596 17.7295C16.8625 16.0987 16.7494 13.2828 18.3131 11.438C19.5429 9.98801 19.5215 8.15773 17.9499 6.75557C17.7402 6.56844 17.7195 6.24409 17.9038 6.03112C18.0881 5.81815 18.4076 5.7972 18.6173 5.98433C20.6262 7.77661 20.6551 10.25 19.0793 12.1078C17.8772 13.526 17.963 15.6614 19.5744 16.9145ZM14.4517 17.6178C14.6591 17.8075 14.6758 18.1321 14.4889 18.3427C14.302 18.5534 13.9823 18.5703 13.7749 18.3805C12.2217 16.9596 12.1394 14.5447 13.2903 12.9492C14.1707 11.7258 14.1551 10.1625 13.0345 8.98542C12.8405 8.78158 12.8459 8.45661 13.0467 8.25957C13.2474 8.06253 13.5674 8.06804 13.7615 8.27188C15.2426 9.82765 15.2637 11.9471 14.1063 13.5554C13.2457 14.7485 13.3078 16.5713 14.4517 17.6178V17.6178Z" />
</svg>
