<svg width="42" height="42" viewBox="0 0 42 42" fill="#aaa" xmlns="http://www.w3.org/2000/svg">
    <path d="M26.6011 35.0056C26.4081 35.2015 26.0939 35.2026 25.8994 35.0082C25.705 34.8138 25.7038 34.4975 25.8969 34.3017L31.8295 28.284C32.0226 28.0881 32.3367 28.087 32.5312 28.2814C32.7257 28.4758 32.7268 28.7921 32.5338 28.9879L26.6011 35.0056ZM23.5044 32.5541C23.3113 32.7499 22.9972 32.751 22.8027 32.5566C22.6082 32.3622 22.6071 32.0459 22.8002 31.8501L31.5716 22.954C31.7647 22.7582 32.0788 22.7571 32.2733 22.9515C32.4678 23.1459 32.4689 23.4622 32.2759 23.658L23.5044 32.5541ZM12.5474 30.1842C12.5474 30.4601 12.3236 30.6838 12.0474 30.6838C11.7713 30.6838 11.5474 30.4601 11.5474 30.1842V27.3486C11.5474 27.0727 11.7713 26.849 12.0474 26.849C12.3236 26.849 12.5474 27.0727 12.5474 27.3486V30.1842ZM32.8053 16.2882C33.4804 17.4956 34.7541 18.2592 36.1632 18.2592C38.2871 18.2592 40.0076 16.537 40.0076 14.4146C40.0076 14.1978 39.9914 13.9898 39.9586 13.7905L35.7622 3.9992H30.7959L32.7168 16.1148C32.7202 16.1361 32.7222 16.1572 32.7228 16.1782C32.7541 16.2097 32.782 16.2464 32.8053 16.2882V16.2882ZM25.2237 16.2882C25.8988 17.4956 27.1725 18.2592 28.5816 18.2592C29.9133 18.2592 31.1229 17.5782 31.8231 16.4842C31.7798 16.4232 31.7494 16.3514 31.7369 16.2723L29.808 4.10631C29.8022 4.07017 29.8005 4.03431 29.8025 3.9992H24.5259C24.5259 3.99978 24.5259 4.00037 24.526 4.00095C24.6154 5.6909 24.6867 7.0427 24.8469 10.0841C25.007 13.1254 25.0783 14.4771 25.1678 16.167C25.1685 16.1807 25.1686 16.1943 25.1683 16.2078C25.1887 16.232 25.2073 16.2588 25.2237 16.2882V16.2882ZM17.6433 16.2882C18.3184 17.4956 19.5921 18.2592 21.0012 18.2592C22.3403 18.2592 23.5566 17.5695 24.2547 16.4635C24.2096 16.393 24.1816 16.31 24.1768 16.2202C24.0874 14.5302 24.0161 13.1784 23.8559 10.137C23.6958 7.0957 23.6245 5.74397 23.535 4.05414C23.5341 4.03563 23.5341 4.0173 23.5351 3.9992H18.2573C18.2583 4.01734 18.2583 4.03572 18.2574 4.05428C18.1636 5.81644 18.0718 7.5517 17.9354 10.1371C17.9034 10.7453 17.9034 10.7453 17.8713 11.3536C17.7421 13.8046 17.6859 14.8702 17.6144 16.2202C17.614 16.2269 17.6135 16.2335 17.6129 16.2401C17.6238 16.2553 17.6339 16.2713 17.6433 16.2882V16.2882ZM10.0618 16.2882C10.7369 17.4956 12.0105 18.2592 13.4196 18.2592C14.7679 18.2592 15.9924 17.56 16.6881 16.4415C16.6423 16.3609 16.6182 16.2666 16.6235 16.167C16.6949 14.8171 16.7512 13.7516 16.8804 11.3006C16.9124 10.6923 16.9124 10.6924 16.9445 10.0841C17.0808 7.49857 17.1726 5.76316 17.2664 4.0008C17.2665 4.00027 17.2665 3.99973 17.2665 3.9992H11.9888C11.9907 4.03431 11.989 4.07017 11.9833 4.10631L10.0543 16.2723C10.0542 16.2731 10.0541 16.2739 10.054 16.2747C10.0566 16.2792 10.0592 16.2836 10.0618 16.2882V16.2882ZM6.24477 3.9992L2.04291 13.7897C2.00939 13.997 1.99234 14.2055 1.99234 14.4146C1.99234 16.5369 3.71399 18.2592 5.83918 18.2592C7.19704 18.2592 8.42917 17.5501 9.12107 16.418C9.07581 16.3276 9.05735 16.2225 9.07442 16.1148L10.9953 3.9992H6.24477ZM5.83919 19.2584C3.16738 19.2584 1 17.0902 1 14.4146C1 14.1276 1.02545 13.8422 1.07524 13.5594L1.10833 13.4485L5.46321 3.30142C5.54173 3.11846 5.72073 3 5.91867 3H36.0885C36.2865 3 36.4655 3.11857 36.544 3.30164L40.893 13.4487L40.9255 13.5572C40.9755 13.8334 41 14.1193 41 14.4146C41 17.0902 38.8338 19.2584 36.1632 19.2584C34.6588 19.2584 33.2757 18.5648 32.3728 17.4243C31.4691 18.5651 30.0866 19.2584 28.5816 19.2584C27.0772 19.2584 25.6941 18.5648 24.7912 17.4243C23.8876 18.565 22.5053 19.2584 21.0012 19.2584C19.4968 19.2584 18.1137 18.5647 17.2108 17.4243C16.307 18.5648 14.9239 19.2584 13.4196 19.2584C11.9153 19.2584 10.5323 18.5649 9.62939 17.4246C8.72647 18.5649 7.34344 19.2584 5.83919 19.2584ZM1.55584 38.0008C1.28181 38.0008 1.05967 37.7769 1.05967 37.5008C1.05967 37.2247 1.28181 37.0008 1.55584 37.0008H5.14799V22.4834C5.14799 22.2074 5.37185 21.9838 5.64799 21.9838C5.92413 21.9838 6.14799 22.2074 6.14799 22.4834V37.0008H14.7379V22.4834C14.7379 22.2074 14.9617 21.9838 15.2379 21.9838C15.514 21.9838 15.7379 22.2074 15.7379 22.4834V37.0008H35.8618V22.4834C35.8618 22.2074 36.0857 21.9838 36.3618 21.9838C36.6379 21.9838 36.8618 22.2074 36.8618 22.4834V37.0008H40.4461C40.7201 37.0008 40.9422 37.2247 40.9422 37.5008C40.9422 37.7769 40.7201 38.0008 40.4461 38.0008H1.55584Z" />
</svg>
