<svg width="65" height="57" viewBox="0 0 65 57" fill="none" xmlns="http://www.w3.org/2000/svg">
    <path d="M1 55.1329C0.723858 55.1329 0.5 55.3568 0.5 55.6329C0.5 55.9091 0.723858 56.1329 1 56.1329V55.1329ZM64 56.1329C64.2761 56.1329 64.5 55.9091 64.5 55.6329C64.5 55.3568 64.2761 55.1329 64 55.1329V56.1329ZM18.3065 55.6305C18.3065 55.9066 18.5304 56.1305 18.8065 56.1305C19.0827 56.1305 19.3065 55.9066 19.3065 55.6305H18.3065ZM18.8065 22.85H19.3065C19.3065 22.5739 19.0827 22.35 18.8065 22.35V22.85ZM7.85001 22.85V22.35C7.57386 22.35 7.35001 22.5739 7.35001 22.85H7.85001ZM7.35001 55.6305C7.35001 55.9066 7.57386 56.1305 7.85001 56.1305C8.12615 56.1305 8.35001 55.9066 8.35001 55.6305H7.35001ZM37.4765 55.6342C37.4765 55.9103 37.7004 56.1342 37.9765 56.1342C38.2527 56.1342 38.4765 55.9103 38.4765 55.6342H37.4765ZM37.9765 1H38.4765C38.4765 0.723858 38.2527 0.5 37.9765 0.5V1ZM27.02 1V0.5C26.7438 0.5 26.52 0.723858 26.52 1H27.02ZM26.52 55.6342C26.52 55.9103 26.7438 56.1342 27.02 56.1342C27.2961 56.1342 27.52 55.9103 27.52 55.6342H26.52ZM56.6565 55.6337C56.6565 55.9098 56.8804 56.1337 57.1565 56.1337C57.4327 56.1337 57.6565 55.9098 57.6565 55.6337H56.6565ZM57.1565 33.78H57.6565C57.6565 33.5039 57.4327 33.28 57.1565 33.28V33.78ZM46.2 33.78V33.28C45.9239 33.28 45.7 33.5039 45.7 33.78H46.2ZM45.7 55.6337C45.7 55.9098 45.9239 56.1337 46.2 56.1337C46.4762 56.1337 46.7 55.9098 46.7 55.6337H45.7ZM1 56.1329H64V55.1329H1V56.1329ZM19.3065 55.6305V22.85H18.3065V55.6305H19.3065ZM18.8065 22.35H7.85001V23.35H18.8065V22.35ZM7.35001 22.85V55.6305H8.35001V22.85H7.35001ZM38.4765 55.6342V1H37.4765V55.6342H38.4765ZM37.9765 0.5H27.02V1.5H37.9765V0.5ZM26.52 1V55.6342H27.52V1H26.52ZM57.6565 55.6337V33.78H56.6565V55.6337H57.6565ZM57.1565 33.28H46.2V34.28H57.1565V33.28ZM45.7 33.78V55.6337H46.7V33.78H45.7Z" fill="white"/>
</svg>
