<svg width="50" height="56" viewBox="0 0 50 56" fill="none" xmlns="http://www.w3.org/2000/svg">
    <path d="M25.3179 55.3486L25.1191 55.8074C25.246 55.8623 25.3899 55.8623 25.5168 55.8074L25.3179 55.3486ZM1.27226 2.77447L1.65357 2.45104C1.51792 2.29112 1.29688 2.23283 1.1 2.30508C0.90313 2.37733 0.772262 2.56476 0.772262 2.77447H1.27226ZM25.3179 1.19L25.7758 0.988992C25.696 0.807321 25.5164 0.690003 25.3179 0.690002C25.1195 0.690002 24.9399 0.80732 24.8601 0.988991L25.3179 1.19ZM49.3636 2.77447H49.8636C49.8636 2.56476 49.7327 2.37733 49.5359 2.30508C49.339 2.23283 49.118 2.29112 48.9823 2.45104L49.3636 2.77447ZM15.5081 26.5648C15.3047 26.3781 14.9884 26.3916 14.8017 26.595C14.6149 26.7984 14.6284 27.1147 14.8319 27.3015L15.5081 26.5648ZM24.5129 35.51L24.1747 35.8783C24.2758 35.9711 24.4105 36.0183 24.5473 36.0088C24.6842 35.9994 24.8111 35.9341 24.8984 35.8284L24.5129 35.51ZM38.1091 19.8284C38.2849 19.6154 38.2548 19.3003 38.0419 19.1244C37.8289 18.9486 37.5138 18.9787 37.338 19.1917L38.1091 19.8284ZM25.5167 54.8898C11.2323 48.6997 1.69 37.0046 1.69 23.6789H0.690002C0.690002 37.5232 10.5935 49.5127 25.1191 55.8074L25.5167 54.8898ZM1.69 23.6789C1.69 20.1996 1.71056 16.7167 1.73112 13.2315C1.75169 9.74679 1.77226 6.25972 1.77226 2.77447H0.772262C0.772262 6.25628 0.751708 9.74039 0.731141 13.2256C0.710578 16.7103 0.690002 20.1962 0.690002 23.6789H1.69ZM0.890956 3.0979C3.17559 5.79137 7.68988 7.55682 12.7933 7.55682V6.55682C7.87117 6.55682 3.68584 4.847 1.65357 2.45104L0.890956 3.0979ZM12.7933 7.55682C15.857 7.55682 18.6917 6.92181 20.962 5.84238C23.225 4.7664 24.9697 3.2269 25.7758 1.39101L24.8601 0.988991C24.1823 2.53287 22.6621 3.92678 20.5326 4.93926C18.4103 5.94831 15.7246 6.55682 12.7933 6.55682V7.55682ZM24.8601 1.39101C25.6662 3.2269 27.4108 4.7664 29.6741 5.84239C31.9447 6.92182 34.7797 7.55682 37.8442 7.55682V6.55682C34.9121 6.55682 32.226 5.9483 30.1035 4.93926C27.9738 3.92677 26.4536 2.53286 25.7758 0.988992L24.8601 1.39101ZM37.8442 7.55682C42.946 7.55682 47.4603 5.79135 49.7449 3.0979L48.9823 2.45104C46.95 4.84701 42.7647 6.55682 37.8442 6.55682V7.55682ZM48.8636 2.77447C48.8636 6.25972 48.8842 9.74679 48.9048 13.2315C48.9253 16.7167 48.9459 20.1996 48.9459 23.6789H49.9459C49.9459 20.1962 49.9253 16.7103 49.9047 13.2256C49.8842 9.74039 49.8636 6.25628 49.8636 2.77447H48.8636ZM48.9459 23.6789C48.9459 37.0046 39.4019 48.6997 25.1191 54.8898L25.5168 55.8074C40.0407 49.5128 49.9459 37.5232 49.9459 23.6789H48.9459ZM14.8319 27.3015L24.1747 35.8783L24.851 35.1417L15.5081 26.5648L14.8319 27.3015ZM24.8984 35.8284L38.1091 19.8284L37.338 19.1917L24.1273 35.1917L24.8984 35.8284Z" fill="white"/>
</svg>
