<svg width="54" height="58" viewBox="0 0 54 58" fill="none" xmlns="http://www.w3.org/2000/svg">
    <path d="M50.4096 14.6613L50.9088 14.6334L50.9088 14.6331L50.4096 14.6613ZM52.6442 54.5741L53.1435 54.5465L53.1435 54.5461L52.6442 54.5741ZM1.00305 54.5741L0.503829 54.5461L0.503825 54.5462L1.00305 54.5741ZM3.23771 14.6613L3.73692 14.6893L3.73693 14.6892L3.23771 14.6613ZM5.47237 12.94H48.1749V11.94H5.47237V12.94ZM48.1749 12.94C49.1037 12.94 49.8551 13.7122 49.9104 14.6896L50.9088 14.6331C50.8276 13.1974 49.7025 11.94 48.1749 11.94V12.94ZM49.9104 14.6893L52.145 54.602L53.1435 54.5461L50.9088 14.6334L49.9104 14.6893ZM52.145 54.6016C52.1937 55.4839 51.3747 56.2988 50.4096 56.2988V57.2988C51.8701 57.2988 53.2279 56.0774 53.1435 54.5465L52.145 54.6016ZM50.4096 56.2988H3.23771V57.2988H50.4096V56.2988ZM3.23771 56.2988C2.26824 56.2988 1.45229 55.4968 1.50227 54.6019L0.503825 54.5462C0.417325 56.0949 1.77804 57.2988 3.23771 57.2988V56.2988ZM1.50226 54.602L3.73692 14.6893L2.73849 14.6334L0.503829 54.5461L1.50226 54.602ZM3.73693 14.6892C3.79222 13.7004 4.54012 12.94 5.47237 12.94V11.94C3.9448 11.94 2.81965 13.182 2.73849 14.6334L3.73693 14.6892ZM13.8701 20.9525C13.8701 22.7486 15.3353 24.1999 17.1336 24.1999V23.1999C15.8818 23.1999 14.8701 22.1906 14.8701 20.9525H13.8701ZM17.1336 24.1999C18.9323 24.1999 20.3953 22.7482 20.3953 20.9525H19.3953C19.3953 22.191 18.3849 23.1999 17.1336 23.1999V24.1999ZM20.3953 20.9525C20.3953 19.1572 18.9327 17.7034 17.1336 17.7034V18.7034C18.3845 18.7034 19.3953 19.7136 19.3953 20.9525H20.3953ZM17.1336 17.7034C15.3349 17.7034 13.8701 19.1568 13.8701 20.9525H14.8701C14.8701 19.714 15.8822 18.7034 17.1336 18.7034V17.7034ZM33.2502 20.9525C33.2502 22.7482 34.7133 24.1999 36.512 24.1999V23.1999C35.2607 23.1999 34.2502 22.191 34.2502 20.9525H33.2502ZM36.512 24.1999C38.3103 24.1999 39.7755 22.7486 39.7755 20.9525H38.7755C38.7755 22.1906 37.7638 23.1999 36.512 23.1999V24.1999ZM39.7755 20.9525C39.7755 19.1568 38.3107 17.7034 36.512 17.7034V18.7034C37.7634 18.7034 38.7755 19.714 38.7755 20.9525H39.7755ZM36.512 17.7034C34.7129 17.7034 33.2502 19.1572 33.2502 20.9525H34.2502C34.2502 19.7136 35.2611 18.7034 36.512 18.7034V17.7034ZM36.7253 18.5501V10.3537H35.7253V18.5501H36.7253ZM36.7253 10.3537C36.7253 4.93691 32.2687 0.5 26.8226 0.5V1.5C31.7208 1.5 35.7253 5.49363 35.7253 10.3537H36.7253ZM26.8226 0.5C21.3768 0.5 16.92 4.93164 16.92 10.3537H17.92C17.92 5.48872 21.9242 1.5 26.8226 1.5V0.5ZM16.92 10.3537V18.5501H17.92V10.3537H16.92Z" fill="white"/>
</svg>
